# xmcd
#
# Track frame offsets:
# 183
# 11038
# 23908
# 37930
# 55990
# 68888
# 80940
# 95850
# 109578
# 124385
# 142050
# 156040
#
# Disc length: 2296 seconds
#
#
# Revision: 0
# Processed by: cddbd v1.5.1PL2 Copyright (c) Steve Scherf et al.
# Submitted via: FreeRIP 2.943 
#
DISCID=aa08f60c
DTITLE=Various Artist - The Dukes of Hazzard
DYEAR=1981
DGENRE=Country
TTITLE0=Good Ol' Boys
TTITLE1=The General Lee
TTITLE2=Laughing All the Way to the Bank
TTITLE3=Up On Cripple Creek
TTITLE4=Cover Girl Eyes
TTITLE5=In The Driver's Seat
TTITLE6=Flash
TTITLE7=Down Home American Girl
TTITLE8=Duelin' Dukes
TTITLE9=Keep Between Them Ditches
TTITLE10=Ballad of the General Lee
TTITLE11=Them Good Ol' Boys Are Bad
EXTD=
EXTT0=
EXTT1=
EXTT2=
EXTT3=
EXTT4=
EXTT5=
EXTT6=
EXTT7=
EXTT8=
EXTT9=
EXTT10=
EXTT11=
PLAYORDER=
